PathFileType	4	(X/Y/Z)	8_coords_data.trc
DataRate	CameraRate	NumFrames	NumMarkers	Units	OrigDataRate	OrigDataStartFrame	OrigNumFrames
30.0	30.0	9	21	m	30.0	22	53
Frame#	Time	THUMB_TIP	THUMB_IP	THUMB_MCP	THUMB_CMC	INDEX_TIP	INDEX_DIP	INDEX_PIP	INDEX_MCP	MIDDLE_TIP	MIDDLE_DIP	MIDDLE_PIP	MIDDLE_MCP	RING_TIP	RING_DIP	RING_PIP	RING_MCP	PINKY_TIP	PINKY_DIP	PINKY_PIP	PINKY_MCP	WRIST
X1	Y1	Z1	X2	Y2	Z2	X3	Y3	Z3	X4	Y4	Z4	X5	Y5	Z5	X6	Y6	Z6	X7	Y7	Z7	X8	Y8	Z8	X9	Y9	Z9	X10	Y10	Z10	X11	Y11	Z11	X12	Y12	Z12	X13	Y13	Z13	X14	Y14	Z14	X15	Y15	Z15	X16	Y16	Z16	X17	Y17	Z17	X18	Y18	Z18	X19	Y19	Z19	X20	Y20	Z20	X21	Y21	Z21
21	0.7	-0.04627080154418945	-0.07651580047607422	0.9528280029296875	-0.04756399917602539	-0.06423220062255859	0.9765889892578125	-0.048086299896240234	-0.047594501495361326	0.9971129760742188	-0.04793410110473633	-0.018926700592041015	1.0114000244140624	-0.04173490142822266	-0.030770000457763673	0.9875609741210938	-0.03140880012512207	-0.03322909927368164	0.9724609985351562	-0.03639130020141602	-0.039475101470947266	0.9519329833984375	-0.07296279907226562	-0.040126998901367186	0.963177001953125	-0.0421515007019043	-0.01864109992980957	0.9909169921875	-0.031217500686645507	-0.017529600143432616	0.97468701171875	-0.034223300933837894	-0.02070359992980957	0.94864697265625	-0.0742667007446289	-0.01973349952697754	0.9577689819335937	-0.04623569869995117	-0.00434768009185791	0.992822998046875	-0.03359320068359375	-0.00225816011428833	0.976239990234375	-0.03317269897460937	-0.0015605499744415282	0.9523770141601563	-0.07005259704589843	-0.000531239986419677	0.9586079711914063	-0.047413398742675784	0.00851049041748047	0.9892589721679688	-0.03488840103149414	0.010987000465393066	0.9761740112304688	-0.03732709884643555	0.014057700157165526	0.959739990234375	-0.06501679992675781	0.01734530067443848	0.9623660278320313	-0.06822769927978516	0.007211599826812744	1.0291400146484375
22	0.7333333333333333	-0.04607559967041015	-0.07640579986572266	0.9527009887695312	-0.04737179946899414	-0.06411119842529298	0.9764630126953125	-0.047903499603271484	-0.04743830108642578	0.9969580078125	-0.04775849914550781	-0.018754600524902344	1.011239990234375	-0.04183209991455078	-0.03071730041503906	0.9871890258789062	-0.031157400131225584	-0.033010101318359374	0.9722730102539062	-0.03617319869995117	-0.03933769989013672	0.95177197265625	-0.07270010375976563	-0.04000899887084961	0.9629459838867187	-0.042060798645019534	-0.018552799224853516	0.9908909912109375	-0.031029899597167968	-0.017399200439453123	0.9745819702148437	-0.03404159927368164	-0.02054680061340332	0.948489990234375	-0.07400640106201171	-0.019605600357055664	0.9575499877929687	-0.04602360153198242	-0.0042350001335144044	0.9926279907226563	-0.03337990188598633	-0.0021153700351715086	0.97610498046875	-0.032932701110839846	-0.001409399986267089	0.9522849731445312	-0.06979660034179687	-0.00037740400433540304	0.9583820190429687	-0.04727590179443359	0.008631919860839844	0.989093017578125	-0.03468289947509766	0.011135999679565429	0.97610302734375	-0.03707049942016601	0.014209099769592285	0.9595180053710938	-0.06480419921875	0.017459999084472655	0.9621589965820313	-0.06808830261230468	0.007349909782409668	1.0289599609375
23	0.7666666666666667	-0.04608950042724609	-0.07636730194091797	0.9527150268554687	-0.04734159851074219	-0.064052001953125	0.9764229736328125	-0.04780279922485352	-0.04735919952392578	0.9968989868164062	-0.047663398742675785	-0.01863800048828125	1.0111400146484375	-0.04174580001831055	-0.030603599548339844	0.9874199829101562	-0.031051099777221678	-0.03293470001220703	0.9721500244140625	-0.03610919952392578	-0.03923939895629883	0.9516589965820312	-0.07259559631347656	-0.03986909866333008	0.9628800048828124	-0.04181740188598633	-0.01846780014038086	0.9906640014648438	-0.03087350082397461	-0.01730780029296875	0.9744149780273438	-0.03391429901123047	-0.020423599243164062	0.9483809814453125	-0.07391480255126953	-0.019445499420166015	0.957510009765625	-0.0459546012878418	-0.004087880134582519	0.99243701171875	-0.03323899841308594	-0.001990739941596984	0.975969970703125	-0.03278770065307617	-0.0012738000154495239	0.9521119995117188	-0.06970320129394532	-0.000257225006818771	0.9583380126953125	-0.04712279891967774	0.008800140380859375	0.9889920043945313	-0.03450479888916016	0.011279299736022949	0.9758400268554688	-0.036922698974609376	0.014346199989318848	0.9594169921875	-0.06465390014648438	0.0176028995513916	0.9621079711914062	-0.06800650024414062	0.007480279922485352	1.02881005859375
24	0.8	-0.045985599517822266	-0.07620310211181641	0.9526229858398437	-0.04724639892578125	-0.0639095001220703	0.9762979736328125	-0.04772819900512695	-0.04722140121459961	0.9967639770507812	-0.04752050018310547	-0.01852589988708496	1.011010009765625	-0.041282798767089846	-0.030418199539184572	0.9869650268554687	-0.030673099517822267	-0.03285609817504883	0.9719030151367187	-0.035982799530029294	-0.039147598266601566	0.951468017578125	-0.07249089813232422	-0.0396974983215332	0.9627119750976563	-0.041665699005126955	-0.01822879981994629	0.99064501953125	-0.030701200485229493	-0.017156099319458006	0.9741090087890625	-0.03383100128173828	-0.020324399948120117	0.9481799926757812	-0.07377940368652344	-0.019281299591064453	0.9573720092773438	-0.04583100128173828	-0.003932070016860962	0.9924429931640625	-0.03316109848022461	-0.001836969971656799	0.9757789916992188	-0.032785598754882815	-0.001119310021400451	0.9519110107421875	-0.06965390014648437	-7.446409761905601e-05	0.9582340087890625	-0.0470088005065918	0.008930230140686035	0.988844970703125	-0.03444390106201172	0.011446299552917481	0.9757849731445313	-0.03695149993896484	0.014509200096130371	0.9592670288085937	-0.06466790008544922	0.017798200607299804	0.9620339965820313	-0.06786470031738281	0.0076170101165771486	1.0286700439453125
25	0.8333333333333334	-0.04545589828491211	-0.07594709777832032	0.9525490112304688	-0.04695660018920898	-0.06373109817504882	0.9762150268554688	-0.04752859878540039	-0.047089298248291014	0.9966480102539063	-0.0475890007019043	-0.018391300201416015	1.0109400024414064	-0.04064080047607422	-0.03021150016784668	0.9867069702148438	-0.030329299926757813	-0.03268399810791016	0.9715020141601562	-0.03568569946289062	-0.03905649948120117	0.9511290283203125	-0.07217949676513671	-0.039485099792480466	0.962531982421875	-0.04136009979248047	-0.018003700256347656	0.9904349975585938	-0.030298200607299805	-0.01692060089111328	0.9737860107421875	-0.03356269836425781	-0.02019230079650879	0.9478469848632812	-0.07348989868164063	-0.019059999465942383	0.9571859741210937	-0.045606700897216794	-0.003670739889144897	0.992197021484375	-0.03296929931640625	-0.0015386300086975089	0.9753720092773438	-0.03278300094604492	-0.0008646910190582271	0.9514450073242188	-0.06956439971923828	0.00016839599609375	0.9581229858398438	-0.04675619888305664	0.009154000282287598	0.9885079956054688	-0.034339698791503906	0.011788499832153321	0.975176025390625	-0.037266399383544924	0.01480840015411377	0.958614990234375	-0.06501529693603515	0.018128599166870117	0.9619600219726563	-0.06784829711914063	0.007696809768676757	1.02868994140625
26	0.8666666666666667	-0.04457419967651367	-0.07574590301513671	0.9527440185546875	-0.046271099090576175	-0.06361880111694336	0.9762930297851562	-0.047020000457763673	-0.046882598876953126	0.9967230224609375	-0.04723419952392578	-0.018216600418090822	1.0109299926757813	-0.03890280151367188	-0.029710800170898437	0.9861129760742188	-0.029410600662231445	-0.032580699920654294	0.9703670043945313	-0.035669498443603516	-0.039367401123046875	0.950239990234375	-0.07184839630126953	-0.03935359954833984	0.9625919799804687	-0.04050529861450195	-0.01758489990234375	0.98997802734375	-0.029338399887084962	-0.016770299911499024	0.9724580078125	-0.03373979949951172	-0.020505300521850588	0.9466420288085937	-0.07332050323486328	-0.018959600448608397	0.9571959838867188	-0.04487969970703125	-0.003221070051193237	0.9913499755859375	-0.032440601348876955	-0.001277099967002868	0.97364599609375	-0.033497100830078126	-0.000930359005928039	0.9497369995117187	-0.06975180053710937	0.000319801986217498	0.957969970703125	-0.045735000610351566	0.009493029594421387	0.9876530151367188	-0.03377370071411133	0.012022700309753418	0.973052001953125	-0.03813750076293945	0.014885000228881836	0.956697998046875	-0.06554489898681641	0.018286500930786133	0.9618049926757812	-0.06782520294189454	0.00790265989303589	1.028699951171875
27	0.9	-0.043180599212646484	-0.07544329833984376	0.9530139770507813	-0.04531840133666992	-0.06343479919433594	0.97652001953125	-0.04646590042114258	-0.04683620071411133	0.9968510131835937	-0.046864200592041015	-0.018137399673461913	1.0109000244140625	-0.03332109832763672	-0.02940340042114258	0.9821480102539063	-0.026693099975585936	-0.033139400482177735	0.964906982421875	-0.03633399963378906	-0.0401088981628418	0.9462410278320312	-0.0710281982421875	-0.0388572998046875	0.9624860229492187	-0.03590179824829102	-0.01708799934387207	0.987666015625	-0.026096300125122072	-0.0172091007232666	0.9672449951171875	-0.03453440093994141	-0.02120560073852539	0.9423300170898438	-0.07280819702148437	-0.018364700317382812	0.957260009765625	-0.04131290054321289	-0.002708539962768554	0.9895659790039063	-0.029839599609375	-0.001077489972114563	0.969198974609375	-0.03504869842529297	-0.000883199989795684	0.9449500122070312	-0.06984739685058594	0.000787083983421325	0.95822900390625	-0.041057399749755856	0.00947449016571045	0.9854459838867188	-0.03141900062561035	0.012393500328063965	0.9685150146484375	-0.03902450180053711	0.015425299644470215	0.9529390258789062	-0.06551509857177734	0.018635299682617186	0.961801025390625	-0.06810079956054688	0.008023380279541015	1.0291099853515624
28	0.9333333333333333	-0.04008789825439453	-0.0762217025756836	0.9548619995117188	-0.0430969009399414	-0.06346429824829102	0.97760302734375	-0.04477569961547852	-0.04677529907226562	0.9977990112304688	-0.046186298370361326	-0.018074899673461913	1.0118599853515624	-0.022512100219726563	-0.030589500427246095	0.9704039916992188	-0.022516300201416015	-0.0356234016418457	0.95210498046875	-0.03829710006713867	-0.04223450088500977	0.9383699951171875	-0.06777729797363281	-0.03826559829711914	0.9627050170898438	-0.020814599990844725	-0.017023300170898436	0.9791170043945312	-0.019034000396728517	-0.018495399475097655	0.9563900146484375	-0.03521500015258789	-0.021678400039672852	0.9355230102539063	-0.0702052001953125	-0.017661699295043944	0.9569869995117187	-0.02431719970703125	-0.001400580048561096	0.9807340087890625	-0.024054000854492188	-0.000749276995658874	0.9575709838867188	-0.03779029846191406	-0.000984955012798309	0.9362589721679687	-0.06752870178222656	0.0014675600528717041	0.9583460083007812	-0.02763159942626953	0.010116499900817871	0.9777630004882812	-0.026823699951171873	0.01386359977722168	0.9596170043945312	-0.03903260040283203	0.017209299087524416	0.9477429809570312	-0.06308039855957032	0.019471200942993164	0.9617379760742187	-0.06807270050048828	0.008586770057678222	1.0296700439453126
29	0.9666666666666667	-0.03679290008544922	-0.07756829833984374	0.95764599609375	-0.04055179977416992	-0.06354970169067382	0.9795999755859375	-0.0435432014465332	-0.04694900131225586	0.9995780029296875	-0.04608169937133789	-0.018038400650024412	1.0139600219726563	-0.00682165002822876	-0.03489199829101562	0.954947021484375	-0.018730899810791016	-0.04010509872436523	0.9404619750976563	-0.03915439987182617	-0.04458729934692383	0.9344039916992187	-0.06332410049438476	-0.03833219909667969	0.9639719848632813	0.000264108002185821	-0.020195999145507813	0.958052001953125	-0.012329700469970704	-0.02156839942932129	0.9398889770507812	-0.03664799880981445	-0.023093700408935547	0.92922998046875	-0.06615619659423828	-0.017678400039672852	0.9581619873046875	-0.005881149768829346	-0.001998630046844482	0.9599550170898438	-0.017767999649047853	-0.0021022698879241937	0.941968017578125	-0.040348499298095704	-0.002453279972076416	0.9297459716796875	-0.06312530136108399	0.001419780015945434	0.9588980102539062	-0.012775699615478515	0.011946499824523926	0.9604210205078125	-0.023099000930786134	0.015508000373840331	0.9466099853515625	-0.039821800231933595	0.017975200653076173	0.9412529907226562	-0.05819060134887695	0.019641700744628905	0.9621530151367188	-0.06828269958496094	0.009082500457763671	1.0301800537109376
